<?xml version="1.0" encoding="UTF-8"?>
<svg id="uuid-628e54b9-b41e-4261-9427-1b5e61ff557e" data-name="Layer 2" xmlns="http://www.w3.org/2000/svg" viewBox="0 0 264.71 274.51">
  <defs>
    <style>
      .uuid-60f210e1-121b-4833-9da0-395880ad7f52 {
        fill: #fff;
        stroke-width: 0px;
      }
    </style>
  </defs>
  <g id="uuid-1e61c5f3-61c7-4b34-8311-20b54e8c6345" data-name="Layer 1">
    <g>
      <rect class="uuid-60f210e1-121b-4833-9da0-395880ad7f52" x="225.49" y="176.47" width="9.81" height="9.81"/>
      <rect class="uuid-60f210e1-121b-4833-9da0-395880ad7f52" x="235.3" y="166.67" width="9.8" height="9.8"/>
      <rect class="uuid-60f210e1-121b-4833-9da0-395880ad7f52" x="245.1" y="156.87" width="9.8" height="9.8"/>
      <rect class="uuid-60f210e1-121b-4833-9da0-395880ad7f52" x="254.9" y="147.06" width="9.81" height="9.81"/>
      <rect class="uuid-60f210e1-121b-4833-9da0-395880ad7f52" x="245.1" y="137.26" width="9.8" height="9.8"/>
      <rect class="uuid-60f210e1-121b-4833-9da0-395880ad7f52" x="235.3" y="127.45" width="9.8" height="9.81"/>
      <rect class="uuid-60f210e1-121b-4833-9da0-395880ad7f52" x="225.49" y="117.65" width="9.81" height="9.8"/>
      <rect class="uuid-60f210e1-121b-4833-9da0-395880ad7f52" x="225.49" y="156.87" width="9.81" height="9.8"/>
      <rect class="uuid-60f210e1-121b-4833-9da0-395880ad7f52" x="215.69" y="156.87" width="9.8" height="9.8"/>
      <rect class="uuid-60f210e1-121b-4833-9da0-395880ad7f52" x="196.08" y="156.87" width="9.8" height="9.8"/>
      <rect class="uuid-60f210e1-121b-4833-9da0-395880ad7f52" x="186.28" y="156.87" width="9.8" height="9.8"/>
      <rect class="uuid-60f210e1-121b-4833-9da0-395880ad7f52" x="176.47" y="156.87" width="9.81" height="9.8"/>
      <rect class="uuid-60f210e1-121b-4833-9da0-395880ad7f52" x="166.67" y="156.87" width="9.8" height="9.8"/>
      <rect class="uuid-60f210e1-121b-4833-9da0-395880ad7f52" x="156.86" y="156.87" width="9.81" height="9.8"/>
      <rect class="uuid-60f210e1-121b-4833-9da0-395880ad7f52" x="147.06" y="156.87" width="9.8" height="9.8"/>
      <rect class="uuid-60f210e1-121b-4833-9da0-395880ad7f52" x="205.88" y="156.87" width="9.81" height="9.8"/>
      <rect class="uuid-60f210e1-121b-4833-9da0-395880ad7f52" x="117.65" y="156.87" width="9.8" height="9.8"/>
      <rect class="uuid-60f210e1-121b-4833-9da0-395880ad7f52" x="137.26" y="156.87" width="9.8" height="9.8"/>
      <rect class="uuid-60f210e1-121b-4833-9da0-395880ad7f52" x="127.45" y="156.87" width="9.81" height="9.8"/>
      <rect class="uuid-60f210e1-121b-4833-9da0-395880ad7f52" x="196.08" y="176.47" width="9.8" height="9.81"/>
      <rect class="uuid-60f210e1-121b-4833-9da0-395880ad7f52" x="196.08" y="205.89" width="9.8" height="9.8"/>
      <rect class="uuid-60f210e1-121b-4833-9da0-395880ad7f52" x="196.08" y="186.28" width="9.8" height="9.8"/>
      <rect class="uuid-60f210e1-121b-4833-9da0-395880ad7f52" x="196.08" y="254.91" width="9.8" height="9.8"/>
      <rect class="uuid-60f210e1-121b-4833-9da0-395880ad7f52" x="196.08" y="235.3" width="9.8" height="9.8"/>
      <rect class="uuid-60f210e1-121b-4833-9da0-395880ad7f52" x="196.08" y="264.71" width="9.8" height="9.8"/>
      <rect class="uuid-60f210e1-121b-4833-9da0-395880ad7f52" x="196.08" y="245.1" width="9.8" height="9.81"/>
      <rect class="uuid-60f210e1-121b-4833-9da0-395880ad7f52" x="196.08" y="196.08" width="9.8" height="9.81"/>
      <rect class="uuid-60f210e1-121b-4833-9da0-395880ad7f52" x="196.08" y="215.69" width="9.8" height="9.8"/>
      <rect class="uuid-60f210e1-121b-4833-9da0-395880ad7f52" x="196.08" y="225.49" width="9.8" height="9.81"/>
      <rect class="uuid-60f210e1-121b-4833-9da0-395880ad7f52" x="196.08" y="98.04" width="9.8" height="9.81"/>
      <rect class="uuid-60f210e1-121b-4833-9da0-395880ad7f52" x="196.08" y="39.22" width="9.8" height="9.8"/>
      <rect class="uuid-60f210e1-121b-4833-9da0-395880ad7f52" x="196.08" y="68.63" width="9.8" height="9.8"/>
      <rect class="uuid-60f210e1-121b-4833-9da0-395880ad7f52" x="196.08" y="88.24" width="9.8" height="9.8"/>
      <rect class="uuid-60f210e1-121b-4833-9da0-395880ad7f52" x="196.08" y="107.85" width="9.8" height="9.8"/>
      <rect class="uuid-60f210e1-121b-4833-9da0-395880ad7f52" x="196.08" width="9.8" height="9.81"/>
      <rect class="uuid-60f210e1-121b-4833-9da0-395880ad7f52" x="196.08" y="49.02" width="9.8" height="9.81"/>
      <rect class="uuid-60f210e1-121b-4833-9da0-395880ad7f52" x="196.08" y="19.61" width="9.8" height="9.8"/>
      <rect class="uuid-60f210e1-121b-4833-9da0-395880ad7f52" x="196.08" y="78.43" width="9.8" height="9.81"/>
      <rect class="uuid-60f210e1-121b-4833-9da0-395880ad7f52" x="196.08" y="9.81" width="9.8" height="9.8"/>
      <rect class="uuid-60f210e1-121b-4833-9da0-395880ad7f52" x="196.08" y="58.83" width="9.8" height="9.8"/>
      <rect class="uuid-60f210e1-121b-4833-9da0-395880ad7f52" x="196.08" y="117.65" width="9.8" height="9.8"/>
      <rect class="uuid-60f210e1-121b-4833-9da0-395880ad7f52" x="196.08" y="29.41" width="9.8" height="9.81"/>
      <rect class="uuid-60f210e1-121b-4833-9da0-395880ad7f52" x="19.61" y="9.81" width="9.8" height="9.8"/>
      <rect class="uuid-60f210e1-121b-4833-9da0-395880ad7f52" x="68.63" y="9.81" width="9.8" height="9.8"/>
      <rect class="uuid-60f210e1-121b-4833-9da0-395880ad7f52" x="58.82" y="9.81" width="9.81" height="9.8"/>
      <rect class="uuid-60f210e1-121b-4833-9da0-395880ad7f52" x="39.22" y="9.81" width="9.8" height="9.8"/>
      <rect class="uuid-60f210e1-121b-4833-9da0-395880ad7f52" x="49.02" y="9.81" width="9.8" height="9.8"/>
      <rect class="uuid-60f210e1-121b-4833-9da0-395880ad7f52" x="29.41" y="9.81" width="9.81" height="9.8"/>
      <rect class="uuid-60f210e1-121b-4833-9da0-395880ad7f52" x="166.67" y="9.81" width="9.8" height="9.8"/>
      <rect class="uuid-60f210e1-121b-4833-9da0-395880ad7f52" x="176.47" y="9.81" width="9.81" height="9.8"/>
      <rect class="uuid-60f210e1-121b-4833-9da0-395880ad7f52" x="156.86" y="9.81" width="9.81" height="9.8"/>
      <rect class="uuid-60f210e1-121b-4833-9da0-395880ad7f52" x="117.65" y="9.81" width="9.8" height="9.8"/>
      <rect class="uuid-60f210e1-121b-4833-9da0-395880ad7f52" x="107.84" y="9.81" width="9.81" height="9.8"/>
      <rect class="uuid-60f210e1-121b-4833-9da0-395880ad7f52" x="88.24" y="9.81" width="9.8" height="9.8"/>
      <rect class="uuid-60f210e1-121b-4833-9da0-395880ad7f52" x="98.04" y="9.81" width="9.8" height="9.8"/>
      <rect class="uuid-60f210e1-121b-4833-9da0-395880ad7f52" x="78.43" y="9.81" width="9.81" height="9.8"/>
      <rect class="uuid-60f210e1-121b-4833-9da0-395880ad7f52" x="137.26" y="9.81" width="9.8" height="9.8"/>
      <rect class="uuid-60f210e1-121b-4833-9da0-395880ad7f52" x="147.06" y="9.81" width="9.8" height="9.8"/>
      <rect class="uuid-60f210e1-121b-4833-9da0-395880ad7f52" x="127.45" y="9.81" width="9.81" height="9.8"/>
      <rect class="uuid-60f210e1-121b-4833-9da0-395880ad7f52" y="205.89" width="9.8" height="9.8"/>
      <rect class="uuid-60f210e1-121b-4833-9da0-395880ad7f52" y="196.08" width="9.8" height="9.81"/>
      <rect class="uuid-60f210e1-121b-4833-9da0-395880ad7f52" y="176.47" width="9.8" height="9.81"/>
      <rect class="uuid-60f210e1-121b-4833-9da0-395880ad7f52" y="156.87" width="9.8" height="9.8"/>
      <rect class="uuid-60f210e1-121b-4833-9da0-395880ad7f52" y="225.49" width="9.8" height="9.81"/>
      <rect class="uuid-60f210e1-121b-4833-9da0-395880ad7f52" y="235.3" width="9.8" height="9.8"/>
      <rect class="uuid-60f210e1-121b-4833-9da0-395880ad7f52" y="254.91" width="9.8" height="9.8"/>
      <rect class="uuid-60f210e1-121b-4833-9da0-395880ad7f52" y="264.71" width="9.8" height="9.8"/>
      <rect class="uuid-60f210e1-121b-4833-9da0-395880ad7f52" y="215.69" width="9.8" height="9.8"/>
      <rect class="uuid-60f210e1-121b-4833-9da0-395880ad7f52" y="166.67" width="9.8" height="9.8"/>
      <rect class="uuid-60f210e1-121b-4833-9da0-395880ad7f52" y="245.1" width="9.8" height="9.81"/>
      <rect class="uuid-60f210e1-121b-4833-9da0-395880ad7f52" y="186.28" width="9.8" height="9.8"/>
      <rect class="uuid-60f210e1-121b-4833-9da0-395880ad7f52" y="78.43" width="9.8" height="9.81"/>
      <rect class="uuid-60f210e1-121b-4833-9da0-395880ad7f52" y="137.26" width="9.8" height="9.8"/>
      <rect class="uuid-60f210e1-121b-4833-9da0-395880ad7f52" y="127.45" width="9.8" height="9.81"/>
      <rect class="uuid-60f210e1-121b-4833-9da0-395880ad7f52" y="117.65" width="9.8" height="9.8"/>
      <rect class="uuid-60f210e1-121b-4833-9da0-395880ad7f52" y="68.63" width="9.8" height="9.8"/>
      <rect class="uuid-60f210e1-121b-4833-9da0-395880ad7f52" y="107.85" width="9.8" height="9.8"/>
      <rect class="uuid-60f210e1-121b-4833-9da0-395880ad7f52" y="88.24" width="9.8" height="9.8"/>
      <rect class="uuid-60f210e1-121b-4833-9da0-395880ad7f52" y="98.04" width="9.8" height="9.81"/>
      <rect class="uuid-60f210e1-121b-4833-9da0-395880ad7f52" y="147.06" width="9.8" height="9.81"/>
      <rect class="uuid-60f210e1-121b-4833-9da0-395880ad7f52" width="9.8" height="9.81"/>
      <rect class="uuid-60f210e1-121b-4833-9da0-395880ad7f52" y="9.81" width="9.8" height="9.8"/>
      <rect class="uuid-60f210e1-121b-4833-9da0-395880ad7f52" y="19.61" width="9.8" height="9.8"/>
      <rect class="uuid-60f210e1-121b-4833-9da0-395880ad7f52" y="39.22" width="9.8" height="9.8"/>
      <rect class="uuid-60f210e1-121b-4833-9da0-395880ad7f52" y="29.41" width="9.8" height="9.81"/>
      <rect class="uuid-60f210e1-121b-4833-9da0-395880ad7f52" y="58.83" width="9.8" height="9.8"/>
      <rect class="uuid-60f210e1-121b-4833-9da0-395880ad7f52" y="49.02" width="9.8" height="9.81"/>
      <rect class="uuid-60f210e1-121b-4833-9da0-395880ad7f52" x="245.1" y="147.06" width="9.8" height="9.81"/>
      <rect class="uuid-60f210e1-121b-4833-9da0-395880ad7f52" x="235.3" y="156.87" width="9.8" height="9.8"/>
      <rect class="uuid-60f210e1-121b-4833-9da0-395880ad7f52" x="235.3" y="147.06" width="9.8" height="9.81"/>
      <rect class="uuid-60f210e1-121b-4833-9da0-395880ad7f52" x="235.3" y="137.26" width="9.8" height="9.8"/>
      <rect class="uuid-60f210e1-121b-4833-9da0-395880ad7f52" x="225.49" y="166.67" width="9.81" height="9.8"/>
      <rect class="uuid-60f210e1-121b-4833-9da0-395880ad7f52" x="225.49" y="147.06" width="9.81" height="9.81"/>
      <rect class="uuid-60f210e1-121b-4833-9da0-395880ad7f52" x="225.49" y="127.45" width="9.81" height="9.81"/>
      <rect class="uuid-60f210e1-121b-4833-9da0-395880ad7f52" x="215.69" y="176.47" width="9.8" height="9.81"/>
      <rect class="uuid-60f210e1-121b-4833-9da0-395880ad7f52" x="215.69" y="147.06" width="9.8" height="9.81"/>
      <rect class="uuid-60f210e1-121b-4833-9da0-395880ad7f52" x="215.69" y="117.65" width="9.8" height="9.8"/>
      <rect class="uuid-60f210e1-121b-4833-9da0-395880ad7f52" x="205.88" y="147.06" width="9.81" height="9.81"/>
      <rect class="uuid-60f210e1-121b-4833-9da0-395880ad7f52" x="196.08" y="147.06" width="9.8" height="9.81"/>
      <rect class="uuid-60f210e1-121b-4833-9da0-395880ad7f52" x="186.28" y="264.71" width="9.8" height="9.8"/>
      <rect class="uuid-60f210e1-121b-4833-9da0-395880ad7f52" x="186.28" y="254.91" width="9.8" height="9.8"/>
      <rect class="uuid-60f210e1-121b-4833-9da0-395880ad7f52" x="186.28" y="245.1" width="9.8" height="9.81"/>
      <rect class="uuid-60f210e1-121b-4833-9da0-395880ad7f52" x="186.28" y="235.3" width="9.8" height="9.8"/>
      <rect class="uuid-60f210e1-121b-4833-9da0-395880ad7f52" x="186.28" y="225.49" width="9.8" height="9.81"/>
      <rect class="uuid-60f210e1-121b-4833-9da0-395880ad7f52" x="186.28" y="215.69" width="9.8" height="9.8"/>
      <rect class="uuid-60f210e1-121b-4833-9da0-395880ad7f52" x="186.28" y="205.89" width="9.8" height="9.8"/>
      <rect class="uuid-60f210e1-121b-4833-9da0-395880ad7f52" x="186.28" y="196.08" width="9.8" height="9.81"/>
      <rect class="uuid-60f210e1-121b-4833-9da0-395880ad7f52" x="186.28" y="186.28" width="9.8" height="9.8"/>
      <rect class="uuid-60f210e1-121b-4833-9da0-395880ad7f52" x="186.28" y="176.47" width="9.8" height="9.81"/>
      <rect class="uuid-60f210e1-121b-4833-9da0-395880ad7f52" x="186.28" y="147.06" width="9.8" height="9.81"/>
      <rect class="uuid-60f210e1-121b-4833-9da0-395880ad7f52" x="186.28" y="117.65" width="9.8" height="9.8"/>
      <rect class="uuid-60f210e1-121b-4833-9da0-395880ad7f52" x="186.28" y="107.85" width="9.8" height="9.8"/>
      <rect class="uuid-60f210e1-121b-4833-9da0-395880ad7f52" x="186.28" y="98.04" width="9.8" height="9.81"/>
      <rect class="uuid-60f210e1-121b-4833-9da0-395880ad7f52" x="186.28" y="88.24" width="9.8" height="9.8"/>
      <rect class="uuid-60f210e1-121b-4833-9da0-395880ad7f52" x="186.28" y="78.43" width="9.8" height="9.81"/>
      <rect class="uuid-60f210e1-121b-4833-9da0-395880ad7f52" x="186.28" y="68.63" width="9.8" height="9.8"/>
      <rect class="uuid-60f210e1-121b-4833-9da0-395880ad7f52" x="186.28" y="58.83" width="9.8" height="9.8"/>
      <rect class="uuid-60f210e1-121b-4833-9da0-395880ad7f52" x="186.28" y="49.02" width="9.8" height="9.81"/>
      <rect class="uuid-60f210e1-121b-4833-9da0-395880ad7f52" x="186.28" y="39.22" width="9.8" height="9.8"/>
      <rect class="uuid-60f210e1-121b-4833-9da0-395880ad7f52" x="186.28" y="29.41" width="9.8" height="9.81"/>
      <rect class="uuid-60f210e1-121b-4833-9da0-395880ad7f52" x="186.28" y="19.61" width="9.8" height="9.8"/>
      <rect class="uuid-60f210e1-121b-4833-9da0-395880ad7f52" x="186.28" y="9.81" width="9.8" height="9.8"/>
      <rect class="uuid-60f210e1-121b-4833-9da0-395880ad7f52" x="186.28" width="9.8" height="9.81"/>
      <rect class="uuid-60f210e1-121b-4833-9da0-395880ad7f52" x="176.47" y="147.06" width="9.81" height="9.81"/>
      <rect class="uuid-60f210e1-121b-4833-9da0-395880ad7f52" x="176.47" width="9.81" height="9.81"/>
      <rect class="uuid-60f210e1-121b-4833-9da0-395880ad7f52" x="166.67" y="147.06" width="9.8" height="9.81"/>
      <rect class="uuid-60f210e1-121b-4833-9da0-395880ad7f52" x="166.67" width="9.8" height="9.81"/>
      <rect class="uuid-60f210e1-121b-4833-9da0-395880ad7f52" x="156.86" y="147.06" width="9.81" height="9.81"/>
      <rect class="uuid-60f210e1-121b-4833-9da0-395880ad7f52" x="156.86" width="9.81" height="9.81"/>
      <rect class="uuid-60f210e1-121b-4833-9da0-395880ad7f52" x="147.06" y="147.06" width="9.8" height="9.81"/>
      <rect class="uuid-60f210e1-121b-4833-9da0-395880ad7f52" x="147.06" width="9.8" height="9.81"/>
      <rect class="uuid-60f210e1-121b-4833-9da0-395880ad7f52" x="137.26" y="147.06" width="9.8" height="9.81"/>
      <rect class="uuid-60f210e1-121b-4833-9da0-395880ad7f52" x="137.26" width="9.8" height="9.81"/>
      <rect class="uuid-60f210e1-121b-4833-9da0-395880ad7f52" x="127.45" y="147.06" width="9.81" height="9.81"/>
      <rect class="uuid-60f210e1-121b-4833-9da0-395880ad7f52" x="127.45" width="9.81" height="9.81"/>
      <rect class="uuid-60f210e1-121b-4833-9da0-395880ad7f52" x="117.65" y="147.06" width="9.8" height="9.81"/>
      <rect class="uuid-60f210e1-121b-4833-9da0-395880ad7f52" x="117.65" width="9.8" height="9.81"/>
      <rect class="uuid-60f210e1-121b-4833-9da0-395880ad7f52" x="107.84" width="9.81" height="9.81"/>
      <rect class="uuid-60f210e1-121b-4833-9da0-395880ad7f52" x="98.04" width="9.8" height="9.81"/>
      <rect class="uuid-60f210e1-121b-4833-9da0-395880ad7f52" x="88.24" width="9.8" height="9.81"/>
      <rect class="uuid-60f210e1-121b-4833-9da0-395880ad7f52" x="78.43" width="9.81" height="9.81"/>
      <rect class="uuid-60f210e1-121b-4833-9da0-395880ad7f52" x="68.63" width="9.8" height="9.81"/>
      <rect class="uuid-60f210e1-121b-4833-9da0-395880ad7f52" x="58.82" width="9.81" height="9.81"/>
      <rect class="uuid-60f210e1-121b-4833-9da0-395880ad7f52" x="49.02" width="9.8" height="9.81"/>
      <rect class="uuid-60f210e1-121b-4833-9da0-395880ad7f52" x="39.22" width="9.8" height="9.81"/>
      <rect class="uuid-60f210e1-121b-4833-9da0-395880ad7f52" x="29.41" width="9.81" height="9.81"/>
      <rect class="uuid-60f210e1-121b-4833-9da0-395880ad7f52" x="19.61" width="9.8" height="9.81"/>
      <rect class="uuid-60f210e1-121b-4833-9da0-395880ad7f52" x="9.8" y="264.71" width="9.81" height="9.8"/>
      <rect class="uuid-60f210e1-121b-4833-9da0-395880ad7f52" x="9.8" y="254.91" width="9.81" height="9.8"/>
      <rect class="uuid-60f210e1-121b-4833-9da0-395880ad7f52" x="9.8" y="245.1" width="9.81" height="9.81"/>
      <rect class="uuid-60f210e1-121b-4833-9da0-395880ad7f52" x="9.8" y="235.3" width="9.81" height="9.8"/>
      <rect class="uuid-60f210e1-121b-4833-9da0-395880ad7f52" x="9.8" y="225.49" width="9.81" height="9.81"/>
      <rect class="uuid-60f210e1-121b-4833-9da0-395880ad7f52" x="9.8" y="215.69" width="9.81" height="9.8"/>
      <rect class="uuid-60f210e1-121b-4833-9da0-395880ad7f52" x="9.8" y="205.89" width="9.81" height="9.8"/>
      <rect class="uuid-60f210e1-121b-4833-9da0-395880ad7f52" x="9.8" y="196.08" width="9.81" height="9.81"/>
      <rect class="uuid-60f210e1-121b-4833-9da0-395880ad7f52" x="9.8" y="186.28" width="9.81" height="9.8"/>
      <rect class="uuid-60f210e1-121b-4833-9da0-395880ad7f52" x="9.8" y="176.47" width="9.81" height="9.81"/>
      <rect class="uuid-60f210e1-121b-4833-9da0-395880ad7f52" x="9.8" y="166.67" width="9.81" height="9.8"/>
      <rect class="uuid-60f210e1-121b-4833-9da0-395880ad7f52" x="9.8" y="156.87" width="9.81" height="9.8"/>
      <rect class="uuid-60f210e1-121b-4833-9da0-395880ad7f52" x="9.8" y="147.06" width="9.81" height="9.81"/>
      <rect class="uuid-60f210e1-121b-4833-9da0-395880ad7f52" x="9.8" y="137.26" width="9.81" height="9.8"/>
      <rect class="uuid-60f210e1-121b-4833-9da0-395880ad7f52" x="9.8" y="127.45" width="9.81" height="9.81"/>
      <rect class="uuid-60f210e1-121b-4833-9da0-395880ad7f52" x="9.8" y="117.65" width="9.81" height="9.8"/>
      <rect class="uuid-60f210e1-121b-4833-9da0-395880ad7f52" x="9.8" y="107.85" width="9.81" height="9.8"/>
      <rect class="uuid-60f210e1-121b-4833-9da0-395880ad7f52" x="9.8" y="98.04" width="9.81" height="9.81"/>
      <rect class="uuid-60f210e1-121b-4833-9da0-395880ad7f52" x="9.8" y="88.24" width="9.81" height="9.8"/>
      <rect class="uuid-60f210e1-121b-4833-9da0-395880ad7f52" x="9.8" y="78.43" width="9.81" height="9.81"/>
      <rect class="uuid-60f210e1-121b-4833-9da0-395880ad7f52" x="9.8" y="68.63" width="9.81" height="9.8"/>
      <rect class="uuid-60f210e1-121b-4833-9da0-395880ad7f52" x="9.8" y="58.83" width="9.81" height="9.8"/>
      <rect class="uuid-60f210e1-121b-4833-9da0-395880ad7f52" x="9.8" y="49.02" width="9.81" height="9.81"/>
      <rect class="uuid-60f210e1-121b-4833-9da0-395880ad7f52" x="9.8" y="39.22" width="9.81" height="9.8"/>
      <rect class="uuid-60f210e1-121b-4833-9da0-395880ad7f52" x="9.8" y="29.41" width="9.81" height="9.81"/>
      <rect class="uuid-60f210e1-121b-4833-9da0-395880ad7f52" x="9.8" y="19.61" width="9.81" height="9.8"/>
      <rect class="uuid-60f210e1-121b-4833-9da0-395880ad7f52" x="9.8" y="9.81" width="9.81" height="9.8"/>
      <rect class="uuid-60f210e1-121b-4833-9da0-395880ad7f52" x="9.8" width="9.81" height="9.81"/>
    </g>
  </g>
</svg>