<?xml version="1.0" encoding="UTF-8"?>
<svg id="uuid-772f6e9f-2b3c-45d3-b1f4-8273fb6c4901" data-name="Layer 2" xmlns="http://www.w3.org/2000/svg" viewBox="0 0 141.09 155.2">
  <defs>
    <style>
      .uuid-95b9ae23-0ca8-41ca-9650-48905861d5b2 {
        fill: #020202;
        stroke-width: 0px;
      }
    </style>
  </defs>
  <g id="uuid-83cd53e0-ac9c-4de7-b209-7ef5273b6f62" data-name="icons">
    <g>
      <rect class="uuid-95b9ae23-0ca8-41ca-9650-48905861d5b2" y="112.88" width="14.11" height="14.11"/>
      <rect class="uuid-95b9ae23-0ca8-41ca-9650-48905861d5b2" x="14.11" y="126.98" width="14.11" height="14.11"/>
      <rect class="uuid-95b9ae23-0ca8-41ca-9650-48905861d5b2" x="14.11" y="112.88" width="14.11" height="14.11"/>
      <rect class="uuid-95b9ae23-0ca8-41ca-9650-48905861d5b2" y="126.98" width="14.11" height="14.11"/>
      <rect class="uuid-95b9ae23-0ca8-41ca-9650-48905861d5b2" x="14.11" y="141.1" width="14.11" height="14.11"/>
      <rect class="uuid-95b9ae23-0ca8-41ca-9650-48905861d5b2" x="28.22" y="141.1" width="14.11" height="14.11"/>
      <rect class="uuid-95b9ae23-0ca8-41ca-9650-48905861d5b2" x="28.22" y="126.98" width="14.11" height="14.11"/>
      <rect class="uuid-95b9ae23-0ca8-41ca-9650-48905861d5b2" x="42.33" y="112.88" width="14.11" height="14.11"/>
      <rect class="uuid-95b9ae23-0ca8-41ca-9650-48905861d5b2" x="42.33" y="112.88" width="14.11" height="14.11"/>
      <rect class="uuid-95b9ae23-0ca8-41ca-9650-48905861d5b2" x="42.33" y="98.77" width="14.11" height="14.11"/>
      <rect class="uuid-95b9ae23-0ca8-41ca-9650-48905861d5b2" x="42.33" y="84.66" width="14.11" height="14.11"/>
      <rect class="uuid-95b9ae23-0ca8-41ca-9650-48905861d5b2" x="42.33" y="56.44" width="14.11" height="14.11"/>
      <rect class="uuid-95b9ae23-0ca8-41ca-9650-48905861d5b2" x="42.33" y="42.33" width="14.11" height="14.11"/>
      <rect class="uuid-95b9ae23-0ca8-41ca-9650-48905861d5b2" x="42.33" y="28.22" width="14.11" height="14.11"/>
      <rect class="uuid-95b9ae23-0ca8-41ca-9650-48905861d5b2" x="42.33" y="14.11" width="14.11" height="14.11"/>
      <rect class="uuid-95b9ae23-0ca8-41ca-9650-48905861d5b2" x="70.54" y="14.11" width="14.11" height="14.11"/>
      <rect class="uuid-95b9ae23-0ca8-41ca-9650-48905861d5b2" x="56.44" y="14.11" width="14.11" height="14.11"/>
      <rect class="uuid-95b9ae23-0ca8-41ca-9650-48905861d5b2" x="42.33" width="14.11" height="14.11"/>
      <rect class="uuid-95b9ae23-0ca8-41ca-9650-48905861d5b2" x="70.54" width="14.11" height="14.11"/>
      <rect class="uuid-95b9ae23-0ca8-41ca-9650-48905861d5b2" x="56.44" width="14.11" height="14.11"/>
      <rect class="uuid-95b9ae23-0ca8-41ca-9650-48905861d5b2" x="84.65" y="14.11" width="14.11" height="14.11"/>
      <rect class="uuid-95b9ae23-0ca8-41ca-9650-48905861d5b2" x="84.65" width="14.11" height="14.11"/>
      <rect class="uuid-95b9ae23-0ca8-41ca-9650-48905861d5b2" x="98.76" y="14.11" width="14.11" height="14.11"/>
      <rect class="uuid-95b9ae23-0ca8-41ca-9650-48905861d5b2" x="98.76" width="14.11" height="14.11"/>
      <rect class="uuid-95b9ae23-0ca8-41ca-9650-48905861d5b2" x="112.87" y="14.11" width="14.11" height="14.11"/>
      <rect class="uuid-95b9ae23-0ca8-41ca-9650-48905861d5b2" x="112.87" width="14.11" height="14.11"/>
      <rect class="uuid-95b9ae23-0ca8-41ca-9650-48905861d5b2" x="42.33" y="126.98" width="14.11" height="14.11"/>
      <rect class="uuid-95b9ae23-0ca8-41ca-9650-48905861d5b2" x="28.22" y="112.88" width="14.11" height="14.11"/>
      <rect class="uuid-95b9ae23-0ca8-41ca-9650-48905861d5b2" x="14.11" y="98.77" width="14.11" height="14.11"/>
      <rect class="uuid-95b9ae23-0ca8-41ca-9650-48905861d5b2" x="28.22" y="98.77" width="14.11" height="14.11"/>
      <rect class="uuid-95b9ae23-0ca8-41ca-9650-48905861d5b2" x="84.65" y="112.88" width="14.11" height="14.11"/>
      <rect class="uuid-95b9ae23-0ca8-41ca-9650-48905861d5b2" x="98.76" y="126.98" width="14.11" height="14.11"/>
      <rect class="uuid-95b9ae23-0ca8-41ca-9650-48905861d5b2" x="98.76" y="112.88" width="14.11" height="14.11"/>
      <rect class="uuid-95b9ae23-0ca8-41ca-9650-48905861d5b2" x="84.65" y="126.98" width="14.11" height="14.11"/>
      <rect class="uuid-95b9ae23-0ca8-41ca-9650-48905861d5b2" x="98.76" y="141.1" width="14.11" height="14.11"/>
      <rect class="uuid-95b9ae23-0ca8-41ca-9650-48905861d5b2" x="112.87" y="141.1" width="14.11" height="14.11"/>
      <rect class="uuid-95b9ae23-0ca8-41ca-9650-48905861d5b2" x="112.87" y="126.98" width="14.11" height="14.11"/>
      <rect class="uuid-95b9ae23-0ca8-41ca-9650-48905861d5b2" x="126.98" y="112.88" width="14.11" height="14.11"/>
      <rect class="uuid-95b9ae23-0ca8-41ca-9650-48905861d5b2" x="126.98" y="112.88" width="14.11" height="14.11"/>
      <rect class="uuid-95b9ae23-0ca8-41ca-9650-48905861d5b2" x="126.98" y="98.77" width="14.11" height="14.11"/>
      <rect class="uuid-95b9ae23-0ca8-41ca-9650-48905861d5b2" x="126.98" y="84.66" width="14.11" height="14.11"/>
      <rect class="uuid-95b9ae23-0ca8-41ca-9650-48905861d5b2" x="42.33" y="70.55" width="14.11" height="14.11"/>
      <rect class="uuid-95b9ae23-0ca8-41ca-9650-48905861d5b2" x="126.98" y="70.55" width="14.11" height="14.11"/>
      <rect class="uuid-95b9ae23-0ca8-41ca-9650-48905861d5b2" x="126.98" y="56.44" width="14.11" height="14.11"/>
      <rect class="uuid-95b9ae23-0ca8-41ca-9650-48905861d5b2" x="126.98" y="42.33" width="14.11" height="14.11"/>
      <rect class="uuid-95b9ae23-0ca8-41ca-9650-48905861d5b2" x="126.98" y="28.22" width="14.11" height="14.11"/>
      <rect class="uuid-95b9ae23-0ca8-41ca-9650-48905861d5b2" x="126.98" y="14.11" width="14.11" height="14.11"/>
      <rect class="uuid-95b9ae23-0ca8-41ca-9650-48905861d5b2" x="126.98" width="14.11" height="14.11"/>
      <rect class="uuid-95b9ae23-0ca8-41ca-9650-48905861d5b2" x="126.98" y="126.98" width="14.11" height="14.11"/>
      <rect class="uuid-95b9ae23-0ca8-41ca-9650-48905861d5b2" x="112.87" y="112.88" width="14.11" height="14.11"/>
      <rect class="uuid-95b9ae23-0ca8-41ca-9650-48905861d5b2" x="98.76" y="98.77" width="14.11" height="14.11"/>
      <rect class="uuid-95b9ae23-0ca8-41ca-9650-48905861d5b2" x="112.87" y="98.77" width="14.11" height="14.11"/>
    </g>
  </g>
</svg>