<?xml version="1.0" encoding="UTF-8"?>
<svg id="uuid-8f74e6b9-8810-4182-a4d1-1dd5824b6686" data-name="Layer 2" xmlns="http://www.w3.org/2000/svg" viewBox="0 0 169.31 155.2">
  <defs>
    <style>
      .uuid-338259ed-9cbd-46b3-bd2b-6ad4ed678c66 {
        fill: #020202;
        stroke-width: 0px;
      }
    </style>
  </defs>
  <g id="uuid-635ab226-b284-4152-9dbc-56fe506c8f32" data-name="icons">
    <g>
      <g>
        <rect class="uuid-338259ed-9cbd-46b3-bd2b-6ad4ed678c66" x="126.98" y="70.55" width="14.11" height="14.11"/>
        <rect class="uuid-338259ed-9cbd-46b3-bd2b-6ad4ed678c66" x="141.09" y="70.55" width="14.11" height="14.11"/>
        <rect class="uuid-338259ed-9cbd-46b3-bd2b-6ad4ed678c66" x="155.2" y="70.55" width="14.11" height="14.11"/>
        <rect class="uuid-338259ed-9cbd-46b3-bd2b-6ad4ed678c66" x="112.87" y="42.33" width="14.11" height="14.11"/>
        <rect class="uuid-338259ed-9cbd-46b3-bd2b-6ad4ed678c66" x="112.87" y="98.77" width="14.11" height="14.11"/>
        <rect class="uuid-338259ed-9cbd-46b3-bd2b-6ad4ed678c66" x="126.98" y="112.88" width="14.11" height="14.11"/>
        <rect class="uuid-338259ed-9cbd-46b3-bd2b-6ad4ed678c66" x="141.09" y="126.98" width="14.11" height="14.11"/>
        <rect class="uuid-338259ed-9cbd-46b3-bd2b-6ad4ed678c66" x="126.98" y="28.22" width="14.11" height="14.11"/>
        <rect class="uuid-338259ed-9cbd-46b3-bd2b-6ad4ed678c66" x="141.09" y="14.11" width="14.11" height="14.11"/>
      </g>
      <rect class="uuid-338259ed-9cbd-46b3-bd2b-6ad4ed678c66" x="84.65" width="14.11" height="14.11"/>
      <rect class="uuid-338259ed-9cbd-46b3-bd2b-6ad4ed678c66" x="70.55" width="14.11" height="14.11"/>
      <rect class="uuid-338259ed-9cbd-46b3-bd2b-6ad4ed678c66" x="56.44" y="14.11" width="14.11" height="14.11"/>
      <rect class="uuid-338259ed-9cbd-46b3-bd2b-6ad4ed678c66" x="42.33" y="28.22" width="14.11" height="14.11"/>
      <rect class="uuid-338259ed-9cbd-46b3-bd2b-6ad4ed678c66" x="28.22" y="42.33" width="14.11" height="14.11"/>
      <rect class="uuid-338259ed-9cbd-46b3-bd2b-6ad4ed678c66" x="28.22" y="56.44" width="14.11" height="14.11"/>
      <rect class="uuid-338259ed-9cbd-46b3-bd2b-6ad4ed678c66" x="28.22" y="70.55" width="14.11" height="14.11"/>
      <rect class="uuid-338259ed-9cbd-46b3-bd2b-6ad4ed678c66" x="28.22" y="84.66" width="14.11" height="14.11"/>
      <rect class="uuid-338259ed-9cbd-46b3-bd2b-6ad4ed678c66" x="14.11" y="42.33" width="14.11" height="14.11"/>
      <rect class="uuid-338259ed-9cbd-46b3-bd2b-6ad4ed678c66" x="14.11" y="98.77" width="14.11" height="14.11"/>
      <rect class="uuid-338259ed-9cbd-46b3-bd2b-6ad4ed678c66" y="56.44" width="14.11" height="14.11"/>
      <rect class="uuid-338259ed-9cbd-46b3-bd2b-6ad4ed678c66" y="42.33" width="14.11" height="14.11"/>
      <rect class="uuid-338259ed-9cbd-46b3-bd2b-6ad4ed678c66" y="70.55" width="14.11" height="14.11"/>
      <rect class="uuid-338259ed-9cbd-46b3-bd2b-6ad4ed678c66" y="84.66" width="14.11" height="14.11"/>
      <rect class="uuid-338259ed-9cbd-46b3-bd2b-6ad4ed678c66" y="98.77" width="14.11" height="14.11"/>
      <rect class="uuid-338259ed-9cbd-46b3-bd2b-6ad4ed678c66" x="56.44" y="126.98" width="14.11" height="14.11"/>
      <rect class="uuid-338259ed-9cbd-46b3-bd2b-6ad4ed678c66" x="42.33" y="112.88" width="14.11" height="14.11"/>
      <rect class="uuid-338259ed-9cbd-46b3-bd2b-6ad4ed678c66" x="28.22" y="98.77" width="14.11" height="14.11"/>
      <rect class="uuid-338259ed-9cbd-46b3-bd2b-6ad4ed678c66" x="70.55" y="141.1" width="14.11" height="14.11"/>
      <rect class="uuid-338259ed-9cbd-46b3-bd2b-6ad4ed678c66" x="14.11" y="84.66" width="14.11" height="14.11"/>
      <rect class="uuid-338259ed-9cbd-46b3-bd2b-6ad4ed678c66" x="56.44" y="112.88" width="14.11" height="14.11"/>
      <rect class="uuid-338259ed-9cbd-46b3-bd2b-6ad4ed678c66" x="42.33" y="98.77" width="14.11" height="14.11"/>
      <rect class="uuid-338259ed-9cbd-46b3-bd2b-6ad4ed678c66" x="70.55" y="126.98" width="14.11" height="14.11"/>
      <rect class="uuid-338259ed-9cbd-46b3-bd2b-6ad4ed678c66" x="14.11" y="70.55" width="14.11" height="14.11"/>
      <rect class="uuid-338259ed-9cbd-46b3-bd2b-6ad4ed678c66" x="56.44" y="98.77" width="14.11" height="14.11"/>
      <rect class="uuid-338259ed-9cbd-46b3-bd2b-6ad4ed678c66" x="42.33" y="84.66" width="14.11" height="14.11"/>
      <rect class="uuid-338259ed-9cbd-46b3-bd2b-6ad4ed678c66" x="70.55" y="112.88" width="14.11" height="14.11"/>
      <rect class="uuid-338259ed-9cbd-46b3-bd2b-6ad4ed678c66" x="56.44" y="84.66" width="14.11" height="14.11"/>
      <rect class="uuid-338259ed-9cbd-46b3-bd2b-6ad4ed678c66" x="42.33" y="70.55" width="14.11" height="14.11"/>
      <rect class="uuid-338259ed-9cbd-46b3-bd2b-6ad4ed678c66" x="70.55" y="98.77" width="14.11" height="14.11"/>
      <rect class="uuid-338259ed-9cbd-46b3-bd2b-6ad4ed678c66" x="56.44" y="70.55" width="14.11" height="14.11"/>
      <rect class="uuid-338259ed-9cbd-46b3-bd2b-6ad4ed678c66" x="70.55" y="84.66" width="14.11" height="14.11"/>
      <rect class="uuid-338259ed-9cbd-46b3-bd2b-6ad4ed678c66" x="70.55" y="70.55" width="14.11" height="14.11"/>
      <rect class="uuid-338259ed-9cbd-46b3-bd2b-6ad4ed678c66" x="56.44" y="56.44" width="14.11" height="14.11"/>
      <rect class="uuid-338259ed-9cbd-46b3-bd2b-6ad4ed678c66" x="70.55" y="56.44" width="14.11" height="14.11"/>
      <rect class="uuid-338259ed-9cbd-46b3-bd2b-6ad4ed678c66" x="70.55" y="42.33" width="14.11" height="14.11"/>
      <rect class="uuid-338259ed-9cbd-46b3-bd2b-6ad4ed678c66" x="42.33" y="56.44" width="14.11" height="14.11"/>
      <rect class="uuid-338259ed-9cbd-46b3-bd2b-6ad4ed678c66" x="56.44" y="42.33" width="14.11" height="14.11"/>
      <rect class="uuid-338259ed-9cbd-46b3-bd2b-6ad4ed678c66" x="70.55" y="28.22" width="14.11" height="14.11"/>
      <rect class="uuid-338259ed-9cbd-46b3-bd2b-6ad4ed678c66" x="84.65" y="141.1" width="14.11" height="14.11"/>
      <rect class="uuid-338259ed-9cbd-46b3-bd2b-6ad4ed678c66" x="84.65" y="112.88" width="14.11" height="14.11"/>
      <rect class="uuid-338259ed-9cbd-46b3-bd2b-6ad4ed678c66" x="84.65" y="126.98" width="14.11" height="14.11"/>
      <rect class="uuid-338259ed-9cbd-46b3-bd2b-6ad4ed678c66" x="84.65" y="98.77" width="14.11" height="14.11"/>
      <rect class="uuid-338259ed-9cbd-46b3-bd2b-6ad4ed678c66" x="84.65" y="84.66" width="14.11" height="14.11"/>
      <rect class="uuid-338259ed-9cbd-46b3-bd2b-6ad4ed678c66" x="84.65" y="70.55" width="14.11" height="14.11"/>
      <rect class="uuid-338259ed-9cbd-46b3-bd2b-6ad4ed678c66" x="84.65" y="56.44" width="14.11" height="14.11"/>
      <rect class="uuid-338259ed-9cbd-46b3-bd2b-6ad4ed678c66" x="84.65" y="42.33" width="14.11" height="14.11"/>
      <rect class="uuid-338259ed-9cbd-46b3-bd2b-6ad4ed678c66" x="84.65" y="28.22" width="14.11" height="14.11"/>
      <rect class="uuid-338259ed-9cbd-46b3-bd2b-6ad4ed678c66" x="84.65" y="14.11" width="14.11" height="14.11"/>
    </g>
    <rect class="uuid-338259ed-9cbd-46b3-bd2b-6ad4ed678c66" x="14.11" y="56.44" width="14.11" height="14.11"/>
    <rect class="uuid-338259ed-9cbd-46b3-bd2b-6ad4ed678c66" x="42.33" y="42.33" width="14.11" height="14.11"/>
    <rect class="uuid-338259ed-9cbd-46b3-bd2b-6ad4ed678c66" x="56.44" y="28.22" width="14.11" height="14.11"/>
    <rect class="uuid-338259ed-9cbd-46b3-bd2b-6ad4ed678c66" x="70.55" y="14.11" width="14.11" height="14.11"/>
  </g>
</svg>