<?xml version="1.0" encoding="UTF-8"?>
<svg id="uuid-6e911f9b-921e-4ebb-8e61-58e53e48038d" data-name="Layer 2" xmlns="http://www.w3.org/2000/svg" viewBox="0 0 457.06 457.06">
  <defs>
    <style>
      .uuid-351380ac-5186-4774-b4c1-c94540f4740f {
        fill: #fff;
        stroke-width: 0px;
      }
    </style>
  </defs>
  <g id="uuid-e42e65af-c1ad-4809-98a2-714e419cafc7" data-name="Layer 1">
    <polygon class="uuid-351380ac-5186-4774-b4c1-c94540f4740f" points="415.51 332.41 415.51 373.96 373.96 373.96 373.96 415.51 332.41 415.51 290.86 415.51 290.86 457.06 332.41 457.06 373.96 457.06 415.51 457.06 457.06 457.06 457.06 415.51 457.06 373.96 457.06 332.41 457.06 290.86 415.51 290.86 415.51 332.41"/>
    <rect class="uuid-351380ac-5186-4774-b4c1-c94540f4740f" x="332.41" y="332.41" width="41.55" height="41.55"/>
    <rect class="uuid-351380ac-5186-4774-b4c1-c94540f4740f" x="290.86" y="290.86" width="41.55" height="41.55"/>
    <rect class="uuid-351380ac-5186-4774-b4c1-c94540f4740f" x="249.31" y="249.31" width="41.55" height="41.55"/>
    <polygon class="uuid-351380ac-5186-4774-b4c1-c94540f4740f" points="124.65 41.55 166.2 41.55 166.2 0 124.65 0 83.1 0 41.55 0 0 0 0 41.55 0 83.1 0 124.65 0 166.2 41.55 166.2 41.55 124.65 41.55 83.1 83.1 83.1 83.1 41.55 124.65 41.55"/>
    <rect class="uuid-351380ac-5186-4774-b4c1-c94540f4740f" x="83.1" y="83.1" width="41.55" height="41.55"/>
    <rect class="uuid-351380ac-5186-4774-b4c1-c94540f4740f" x="124.65" y="124.65" width="41.55" height="41.55"/>
    <rect class="uuid-351380ac-5186-4774-b4c1-c94540f4740f" x="166.2" y="166.2" width="41.55" height="41.55"/>
    <polygon class="uuid-351380ac-5186-4774-b4c1-c94540f4740f" points="41.55 373.96 41.55 332.41 41.55 290.86 0 290.86 0 332.41 0 373.96 0 415.51 0 457.06 41.55 457.06 83.1 457.06 124.65 457.06 166.2 457.06 166.2 415.51 124.65 415.51 83.1 415.51 83.1 373.96 41.55 373.96"/>
    <rect class="uuid-351380ac-5186-4774-b4c1-c94540f4740f" x="83.1" y="332.41" width="41.55" height="41.55"/>
    <rect class="uuid-351380ac-5186-4774-b4c1-c94540f4740f" x="124.65" y="290.86" width="41.55" height="41.55"/>
    <rect class="uuid-351380ac-5186-4774-b4c1-c94540f4740f" x="166.2" y="249.31" width="41.55" height="41.55"/>
    <polygon class="uuid-351380ac-5186-4774-b4c1-c94540f4740f" points="373.96 0 332.41 0 290.86 0 290.86 41.55 332.41 41.55 373.96 41.55 373.96 83.1 415.51 83.1 415.51 124.65 415.51 166.2 457.06 166.2 457.06 124.65 457.06 83.1 457.06 41.55 457.06 0 415.51 0 373.96 0"/>
    <rect class="uuid-351380ac-5186-4774-b4c1-c94540f4740f" x="332.41" y="83.1" width="41.55" height="41.55"/>
    <rect class="uuid-351380ac-5186-4774-b4c1-c94540f4740f" x="290.86" y="124.65" width="41.55" height="41.55"/>
    <rect class="uuid-351380ac-5186-4774-b4c1-c94540f4740f" x="249.31" y="166.2" width="41.55" height="41.55"/>
  </g>
</svg>