<?xml version="1.0" encoding="UTF-8"?>
<svg id="uuid-dac0b6ed-cb79-4147-a0da-aa181a2f0188" data-name="Layer 2" xmlns="http://www.w3.org/2000/svg" viewBox="0 0 457.06 373.96">
  <defs>
    <style>
      .uuid-05a1a824-ccf3-4513-ab8c-c473e31bfc30, .uuid-25c8b2fc-abbd-4f57-80ff-43454bb61c5a {
        stroke-width: 0px;
      }

      .uuid-25c8b2fc-abbd-4f57-80ff-43454bb61c5a {
        fill: #fff;
      }
    </style>
  </defs>
  <g id="uuid-b7f29b24-db81-4bb9-bdf8-03f30f92a6d1" data-name="Layer 1">
    <polygon class="uuid-25c8b2fc-abbd-4f57-80ff-43454bb61c5a" points="18.12 19.68 279.66 30.57 436.26 186.98 265.53 357.58 25.66 356.48 18.12 19.68"/>
    <rect class="uuid-05a1a824-ccf3-4513-ab8c-c473e31bfc30" x="415.51" y="166.2" width="41.55" height="41.55"/>
    <rect class="uuid-05a1a824-ccf3-4513-ab8c-c473e31bfc30" x="373.96" y="124.65" width="41.55" height="41.55"/>
    <rect class="uuid-05a1a824-ccf3-4513-ab8c-c473e31bfc30" x="332.41" y="83.1" width="41.55" height="41.55"/>
    <rect class="uuid-05a1a824-ccf3-4513-ab8c-c473e31bfc30" x="290.86" y="41.55" width="41.55" height="41.55"/>
    <rect class="uuid-05a1a824-ccf3-4513-ab8c-c473e31bfc30" x="332.41" y="249.31" width="41.55" height="41.55"/>
    <rect class="uuid-05a1a824-ccf3-4513-ab8c-c473e31bfc30" x="290.86" y="290.86" width="41.55" height="41.55"/>
    <polygon class="uuid-05a1a824-ccf3-4513-ab8c-c473e31bfc30" points="207.76 373.96 249.31 373.96 290.86 373.96 290.86 332.41 249.31 332.41 207.76 332.41 166.2 332.41 124.65 332.41 83.1 332.41 41.55 332.41 41.55 290.86 41.55 249.31 41.55 207.76 41.55 166.2 41.55 124.65 41.55 83.1 41.55 41.55 83.1 41.55 124.65 41.55 166.2 41.55 207.76 41.55 249.31 41.55 290.86 41.55 290.86 0 249.31 0 207.76 0 166.2 0 124.65 0 83.1 0 41.55 0 0 0 0 41.55 0 83.1 0 124.65 0 166.2 0 207.76 0 249.31 0 290.86 0 332.41 0 373.96 41.55 373.96 83.1 373.96 124.65 373.96 166.2 373.96 207.76 373.96"/>
    <rect class="uuid-05a1a824-ccf3-4513-ab8c-c473e31bfc30" x="373.96" y="207.76" width="41.55" height="41.55"/>
  </g>
</svg>