<?xml version="1.0" encoding="UTF-8"?>
<svg id="uuid-2eef9e89-691e-458a-9dec-38c6ccde9d4f" data-name="Layer 2" xmlns="http://www.w3.org/2000/svg" viewBox="0 0 744.32 739.46">
  <defs>
    <style>
      .uuid-7634fd5c-03a9-42cd-8bed-1330ab17be8a {
        fill: #d1d3d4;
      }

      .uuid-7634fd5c-03a9-42cd-8bed-1330ab17be8a, .uuid-2ea76e55-d621-481c-b6ee-467bdff433ab, .uuid-2b94d08e-ea6c-4bb5-9803-1748753b2020 {
        stroke-width: 0px;
      }

      .uuid-2ea76e55-d621-481c-b6ee-467bdff433ab {
        fill: #a7a9ac;
      }

      .uuid-2b94d08e-ea6c-4bb5-9803-1748753b2020 {
        fill: #fff;
      }
    </style>
  </defs>
  <g id="uuid-5ce37427-3558-4ec0-9707-3d8810586b1c" data-name="Layer 1">
    <rect class="uuid-2b94d08e-ea6c-4bb5-9803-1748753b2020" x="59.54" y="387.04" width="29.77" height="29.77"/>
    <rect class="uuid-2b94d08e-ea6c-4bb5-9803-1748753b2020" x="29.77" y="357.27" width="29.77" height="29.77"/>
    <polygon class="uuid-2b94d08e-ea6c-4bb5-9803-1748753b2020" points="178.63 178.63 178.63 148.86 148.86 148.86 148.86 178.63 148.86 208.41 178.63 208.41 178.63 178.63"/>
    <rect class="uuid-2b94d08e-ea6c-4bb5-9803-1748753b2020" x="297.72" y="59.54" width="29.77" height="29.77"/>
    <rect class="uuid-2b94d08e-ea6c-4bb5-9803-1748753b2020" x="327.5" y="29.77" width="29.77" height="29.77"/>
    <rect class="uuid-2b94d08e-ea6c-4bb5-9803-1748753b2020" x="267.95" y="89.32" width="29.77" height="29.77"/>
    <rect class="uuid-2ea76e55-d621-481c-b6ee-467bdff433ab" x="506.13" y="59.54" width="29.77" height="29.77"/>
    <rect class="uuid-2ea76e55-d621-481c-b6ee-467bdff433ab" x="535.9" y="89.32" width="29.77" height="29.77"/>
    <rect class="uuid-2ea76e55-d621-481c-b6ee-467bdff433ab" x="476.36" y="29.77" width="29.77" height="29.77"/>
    <rect class="uuid-2b94d08e-ea6c-4bb5-9803-1748753b2020" x="29.77" y="238.18" width="29.77" height="29.77"/>
    <polygon class="uuid-2b94d08e-ea6c-4bb5-9803-1748753b2020" points="119.09 238.18 148.86 238.18 148.86 208.41 119.09 208.41 89.32 208.41 59.54 208.41 59.54 238.18 89.32 238.18 119.09 238.18"/>
    <polygon class="uuid-2ea76e55-d621-481c-b6ee-467bdff433ab" points="565.68 178.63 565.68 208.41 595.45 208.41 625.22 208.41 654.99 208.41 654.99 178.63 625.22 178.63 595.45 178.63 595.45 148.86 595.45 119.09 565.68 119.09 565.68 148.86 565.68 178.63"/>
    <polygon class="uuid-2b94d08e-ea6c-4bb5-9803-1748753b2020" points="238.18 148.86 267.95 148.86 267.95 119.09 238.18 119.09 208.41 119.09 178.63 119.09 178.63 148.86 208.41 148.86 238.18 148.86"/>
    <polygon class="uuid-2b94d08e-ea6c-4bb5-9803-1748753b2020" points="416.81 29.77 446.59 29.77 476.36 29.77 476.36 0 446.59 0 416.81 0 387.04 0 357.27 0 357.27 29.77 387.04 29.77 416.81 29.77"/>
    <polygon class="uuid-2b94d08e-ea6c-4bb5-9803-1748753b2020" points="29.77 297.72 29.77 267.95 0 267.95 0 297.72 0 327.5 0 357.27 29.77 357.27 29.77 327.5 29.77 297.72"/>
    <rect class="uuid-2ea76e55-d621-481c-b6ee-467bdff433ab" x="655.01" y="208.41" width="29.77" height="29.77"/>
    <rect class="uuid-2ea76e55-d621-481c-b6ee-467bdff433ab" x="684.78" y="238.18" width="29.77" height="29.77"/>
    <rect class="uuid-2ea76e55-d621-481c-b6ee-467bdff433ab" x="684.78" y="357.27" width="29.77" height="29.77"/>
    <rect class="uuid-2ea76e55-d621-481c-b6ee-467bdff433ab" x="655.01" y="387.04" width="29.77" height="29.77"/>
    <polygon class="uuid-2ea76e55-d621-481c-b6ee-467bdff433ab" points="714.55 267.95 714.55 297.72 714.55 327.5 714.55 357.27 744.32 357.27 744.32 327.5 744.32 297.72 744.32 267.95 714.55 267.95"/>
    <polygon class="uuid-2ea76e55-d621-481c-b6ee-467bdff433ab" points="595.46 416.81 565.69 416.81 535.91 416.81 506.14 416.81 476.37 416.81 446.59 416.81 416.82 416.81 387.05 416.81 357.28 416.81 327.5 416.81 297.73 416.81 267.95 416.81 238.18 416.81 208.41 416.81 178.64 416.81 148.86 416.81 119.09 416.81 89.32 416.81 89.32 446.59 119.09 446.59 148.86 446.59 178.64 446.59 208.41 446.59 238.18 446.59 267.95 446.59 297.73 446.59 327.5 446.59 357.28 446.59 387.05 446.59 416.82 446.59 446.59 446.59 476.37 446.59 506.14 446.59 535.91 446.59 565.69 446.59 595.46 446.59 625.23 446.59 655.01 446.59 655.01 416.81 625.23 416.81 595.46 416.81"/>
    <polygon class="uuid-7634fd5c-03a9-42cd-8bed-1330ab17be8a" points="684.78 357.27 684.78 387.04 655.01 387.04 655.01 416.81 624.45 416.81 593.89 416.81 563.34 416.81 532.78 416.81 502.22 416.81 471.67 416.81 441.11 416.81 410.55 416.81 380 416.81 349.44 416.81 318.88 416.81 288.33 416.81 257.77 416.81 227.21 416.81 196.66 416.81 166.1 416.81 135.54 416.81 104.99 416.81 89.32 416.81 89.32 387.04 59.54 387.04 59.54 357.27 29.77 357.27 29.77 327.5 29.77 297.72 29.77 267.95 59.54 267.95 59.54 238.18 79.39 238.18 114.13 238.18 148.86 238.18 148.86 208.41 178.63 208.41 178.63 178.63 178.63 148.86 191.33 148.86 229.64 148.86 267.95 148.86 267.95 119.09 297.72 119.09 297.72 89.32 327.5 89.32 327.5 59.54 357.27 59.54 357.27 29.77 372.15 29.77 406.88 29.77 441.62 29.77 476.36 29.77 476.36 59.54 506.13 59.54 506.13 89.32 535.9 89.32 535.9 119.09 565.68 119.09 565.68 148.86 565.68 178.63 565.68 208.41 595.45 208.41 625.22 208.41 655.01 208.41 655.01 238.18 684.78 238.18 684.78 267.95 714.55 267.95 714.55 297.72 714.55 327.5 714.55 357.27 684.78 357.27"/>
    <g>
      <polygon class="uuid-2ea76e55-d621-481c-b6ee-467bdff433ab" points="684.78 267.95 684.78 297.72 684.78 327.5 655.01 327.5 655.01 357.27 625.23 357.27 625.23 387.04 595.46 387.04 565.69 387.04 540.99 387.04 535.92 387.04 506.13 387.04 499.14 387.04 476.36 387.04 446.59 387.04 446.59 416.81 476.36 416.81 499.14 416.81 506.13 416.81 535.92 416.81 540.99 416.81 565.69 416.81 595.46 416.81 625.23 416.81 655.01 416.81 655.01 387.04 684.78 387.04 684.78 357.27 714.55 357.27 714.55 327.5 714.55 297.72 714.55 267.95 684.78 267.95"/>
      <rect class="uuid-2ea76e55-d621-481c-b6ee-467bdff433ab" x="655.01" y="238.18" width="29.77" height="29.77"/>
      <polygon class="uuid-2ea76e55-d621-481c-b6ee-467bdff433ab" points="625.22 238.18 625.23 238.18 654.99 238.18 654.99 208.41 625.23 208.41 625.22 208.41 595.46 208.41 565.69 208.41 565.69 238.18 595.46 238.18 625.22 238.18"/>
    </g>
    <g>
      <polygon class="uuid-2b94d08e-ea6c-4bb5-9803-1748753b2020" points="148.86 238.18 119.09 238.18 89.32 238.18 59.54 238.18 59.54 267.95 89.32 267.95 119.09 267.95 148.86 267.95 178.63 267.95 178.63 238.18 178.63 208.41 148.86 208.41 148.86 238.18"/>
      <rect class="uuid-2b94d08e-ea6c-4bb5-9803-1748753b2020" x="267.95" y="119.09" width="29.77" height="29.77"/>
      <rect class="uuid-2b94d08e-ea6c-4bb5-9803-1748753b2020" x="297.72" y="89.32" width="29.77" height="29.77"/>
      <rect class="uuid-2b94d08e-ea6c-4bb5-9803-1748753b2020" x="327.5" y="59.54" width="29.77" height="29.77"/>
      <polygon class="uuid-2b94d08e-ea6c-4bb5-9803-1748753b2020" points="446.59 29.77 416.81 29.77 387.04 29.77 357.27 29.77 357.27 59.54 387.04 59.54 416.81 59.54 446.59 59.54 476.36 59.54 476.36 29.77 446.59 29.77"/>
      <polygon class="uuid-2b94d08e-ea6c-4bb5-9803-1748753b2020" points="208.41 148.86 178.63 148.86 178.63 178.63 178.63 208.41 208.41 208.41 208.41 178.63 238.18 178.63 267.95 178.63 267.95 148.86 238.18 148.86 208.41 148.86"/>
      <polygon class="uuid-2b94d08e-ea6c-4bb5-9803-1748753b2020" points="29.77 297.72 29.77 327.5 29.77 357.27 59.54 357.27 59.54 327.5 59.54 297.72 59.54 267.95 29.77 267.95 29.77 297.72"/>
    </g>
    <rect class="uuid-2b94d08e-ea6c-4bb5-9803-1748753b2020" x="151.51" y="487.09" width="29.77" height="150.22" transform="translate(-108.97 44.58) rotate(-11.53)"/>
    <rect class="uuid-2b94d08e-ea6c-4bb5-9803-1748753b2020" x="285.49" y="587.78" width="29.77" height="150.22" transform="translate(-126.39 73.38) rotate(-11.53)"/>
    <rect class="uuid-2b94d08e-ea6c-4bb5-9803-1748753b2020" x="374.81" y="487.09" width="29.77" height="150.22" transform="translate(-104.47 89.2) rotate(-11.53)"/>
    <rect class="uuid-2b94d08e-ea6c-4bb5-9803-1748753b2020" x="494.66" y="574.46" width="29.77" height="150.22" transform="translate(-119.51 114.9) rotate(-11.53)"/>
    <rect class="uuid-2b94d08e-ea6c-4bb5-9803-1748753b2020" x="583.22" y="487.09" width="29.77" height="150.22" transform="translate(-100.27 130.84) rotate(-11.53)"/>
  </g>
</svg>