<?xml version="1.0" encoding="UTF-8"?>
<svg id="uuid-b5ecb73c-3faa-422f-98ce-418aadcefc78" data-name="Layer 2" xmlns="http://www.w3.org/2000/svg" viewBox="0 0 103.31 112.36">
  <defs>
    <style>
      .uuid-692efb20-8581-4a68-ba38-8529b8a8bb8b {
        fill: #fff;
        stroke-width: 0px;
      }
    </style>
  </defs>
  <g id="uuid-27ec0e14-d760-42b3-af11-28939fc02963" data-name="Layer 1">
    <g>
      <path class="uuid-692efb20-8581-4a68-ba38-8529b8a8bb8b" d="m.17,31.92c.89-6.41,4.72-18.65,21.12-16.92,0,0,6.84-21.72,29.68-10.91,0,0,15.57-14.48,32.35,11.02,0,0,18.28-2.15,19.89,15.26.44,4.74-.61,9.49-2.74,13.74-3.55,7.1-17.45,10.52-28.11,5.34,0,0-24.35,21.75-48.01.46,0,0-17.6,2.14-23.07-9.59C.06,37.73-.23,34.78.17,31.92Z"/>
      <path class="uuid-692efb20-8581-4a68-ba38-8529b8a8bb8b" d="m23.13,60.68s-3.05,12.8,2.24,11.79c4.91-.94-2.24-11.79-2.24-11.79Z"/>
      <path class="uuid-692efb20-8581-4a68-ba38-8529b8a8bb8b" d="m53.36,95.18s-4.42,18.56,3.25,17.1c7.12-1.36-3.25-17.1-3.25-17.1Z"/>
      <path class="uuid-692efb20-8581-4a68-ba38-8529b8a8bb8b" d="m70.97,76.26s-5.01,21.05,3.69,19.39c8.08-1.54-3.69-19.39-3.69-19.39Z"/>
      <path class="uuid-692efb20-8581-4a68-ba38-8529b8a8bb8b" d="m51.63,66.51s-3.28,13.77,2.41,12.69c5.29-1.01-2.41-12.69-2.41-12.69Z"/>
      <path class="uuid-692efb20-8581-4a68-ba38-8529b8a8bb8b" d="m36.89,79.46s-3.6,15.13,2.65,13.94c5.81-1.11-2.65-13.94-2.65-13.94Z"/>
      <path class="uuid-692efb20-8581-4a68-ba38-8529b8a8bb8b" d="m78.92,56.22s-3.6,15.13,2.65,13.94c5.81-1.11-2.65-13.94-2.65-13.94Z"/>
      <path class="uuid-692efb20-8581-4a68-ba38-8529b8a8bb8b" d="m91.92,77.22s-3.6,15.13,2.65,13.94c5.81-1.11-2.65-13.94-2.65-13.94Z"/>
    </g>
  </g>
</svg>