<?xml version="1.0" encoding="UTF-8"?>
<svg id="uuid-e78ec56e-7209-4810-a127-6e883564454a" data-name="Layer 2" xmlns="http://www.w3.org/2000/svg" viewBox="0 0 1968.86 1765.18">
  <defs>
    <style>
      .uuid-a3d3347b-2fdf-4bbb-b0e1-edbd7c1c7f7e {
        fill: #fff;
        stroke-width: 0px;
      }
    </style>
  </defs>
  <g id="uuid-ea53c20a-d8c9-42d0-aeb4-1e57a509aedf" data-name="—ÎÓÈ_1">
    <path class="uuid-a3d3347b-2fdf-4bbb-b0e1-edbd7c1c7f7e" d="m1900.96,611.02v-135.78h-67.89v-135.78h-67.89v-67.89h-67.89v-67.89h-67.89v-67.89h-135.79v-67.89h-135.78V0h-135.78v135.78h67.89v203.67h67.89v407.35h67.89v-67.89h135.78v-67.89h203.68v67.89h135.79v67.89h67.89v-135.78h-67.89Zm-678.92-339.46v-135.78h-67.9V0h-339.46v135.78h-67.89v203.67h-67.89v407.35h67.89v-67.89h135.78v-67.89h203.68v67.89h135.79v67.89h67.89v-407.35h-67.89v-67.89Zm-543.13-67.89v-67.89h67.89V0h-135.78v67.89h-135.78v67.89h-135.78v67.89h-67.89v67.89h-67.89v67.89h-67.89v135.78h-67.89v135.78H0v135.78h67.89v-67.89h135.79v-67.89h203.67v67.89h135.78v67.89h67.89v-407.35h67.89v-135.78Zm271.57,543.13v950.48h67.89v-1018.37h-67.89v67.89Zm-135.79,950.48v67.89h135.79v-67.89h-135.79Zm0-135.78h-67.89v135.78h67.89v-135.78Z"/>
  </g>
</svg>