<?xml version="1.0" encoding="UTF-8" standalone="no"?>
<svg
   xmlns:dc="http://purl.org/dc/elements/1.1/"
   xmlns:cc="http://creativecommons.org/ns#"
   xmlns:rdf="http://www.w3.org/1999/02/22-rdf-syntax-ns#"
   xmlns:svg="http://www.w3.org/2000/svg"
   xmlns="http://www.w3.org/2000/svg"
   viewBox="0 0 437.33334 268"
   height="268"
   width="437.33334"
   xml:space="preserve"
   id="svg2"
   version="1.1"><metadata
     id="metadata8"><rdf:RDF><cc:Work
         rdf:about=""><dc:format>image/svg+xml</dc:format><dc:type
           rdf:resource="http://purl.org/dc/dcmitype/StillImage" /></cc:Work></rdf:RDF></metadata><defs
     id="defs6" /><g
     transform="matrix(1.3333333,0,0,-1.3333333,0,268)"
     id="g10"><g
       transform="scale(0.1)"
       id="g12"><path
         id="path14"
         style="fill:#000000;fill-opacity:1;fill-rule:nonzero;stroke:none"
         d="m 2923.55,1794.98 c -0.24,-9.21 -0.54,-16.77 -0.84,-19.48 -2.37,-20.75 0,-30.56 -59.83,-30.56 -59.83,0 -57.47,9.81 -59.83,30.56 -0.76,6.75 -1.48,43.7 -1.4,60.98 0.07,17.29 0.64,54.23 1.4,60.98 2.36,20.75 0,30.56 59.83,30.56 59.83,0 57.46,-9.81 59.83,-30.56 0.32,-2.83 0.6,-10.96 0.83,-20.73 h 81.84 c -0.52,18.54 -1.4,34.04 -2.32,42.12 -4.72,41.5 11.63,81.24 -140.09,81.24 -151.72,0 -135.37,-39.74 -140.09,-81.24 -1.53,-13.51 -2.95,-47.8 -2.81,-82.37 0.15,-34.57 1.28,-68.86 2.81,-82.37 4.72,-41.5 -11.63,-81.23 140.09,-81.23 151.72,0 135.37,39.73 140.09,81.23 0.9,7.89 1.65,22.88 2.16,40.87 h -81.67" /><path
         id="path16"
         style="fill:#000000;fill-opacity:1;fill-rule:nonzero;stroke:none"
         d="m 1953.15,1991.79 -79.85,-233.28 -79.85,233.28 -119.47,0.62 v -313.12 h 79.86 v 233.27 l 79.85,-233.27 h 79.86 l 79.22,233.27 v -233.27 h 79.85 v 313.12 l -119.47,-0.62" /><path
         id="path18"
         style="fill:#000000;fill-opacity:1;fill-rule:nonzero;stroke:none"
         d="m 3023.3,1992.41 h 229.5 v -79.85 h -74.82 v -233.27 h -79.85 v 233.27 h -74.83 v 79.85" /><path
         id="path20"
         style="fill:#000000;fill-opacity:1;fill-rule:nonzero;stroke:none"
         d="m 2407.75,1679.29 91.59,313.43 h 119.04 l 91.8,-313.43 h -79.85 l -18.86,64.76 h -104.78 l 14.85,50.93 h 74.84 l -37.1,127.64 -71.68,-243.33 h -79.85" /><path
         id="path22"
         style="fill:#000000;fill-opacity:1;fill-rule:nonzero;stroke:none"
         d="m 1481.68,1928.02 c 59.83,0 57.47,-9.81 59.83,-30.56 0.76,-6.75 1.33,-43.69 1.4,-60.98 0.07,-17.28 -0.64,-54.23 -1.4,-60.98 -2.36,-20.75 0,-30.56 -59.83,-30.56 -59.82,0 -57.47,9.81 -59.82,30.56 -0.77,6.75 -1.48,43.7 -1.41,60.98 0.07,17.29 0.64,54.23 1.41,60.98 2.35,20.75 0,30.56 59.82,30.56 l 0.09,72.07 c -151.71,0 -135.36,-39.74 -140.08,-81.24 -1.54,-13.51 -2.96,-47.8 -2.81,-82.37 0.14,-34.57 1.27,-68.86 2.81,-82.37 4.72,-41.5 -11.63,-81.23 140.08,-81.23 151.72,0 135.37,39.73 140.09,81.23 1.54,13.51 2.67,47.8 2.81,82.37 0.15,34.57 -1.27,68.86 -2.81,82.37 -4.72,41.5 11.63,81.24 -140.09,81.24 l -0.09,-72.07" /><path
         id="path24"
         style="fill:#000000;fill-opacity:1;fill-rule:nonzero;stroke:none"
         d="m 1212.07,1794.98 c -0.24,-9.21 -0.54,-16.77 -0.85,-19.48 -2.36,-20.75 0,-30.56 -59.83,-30.56 -59.82,0 -57.46,9.81 -59.82,30.56 -0.77,6.75 -1.48,43.7 -1.4,60.98 0.07,17.29 0.63,54.23 1.4,60.98 2.36,20.75 0,30.56 59.82,30.56 59.83,0 57.47,-9.81 59.83,-30.56 0.32,-2.83 0.61,-10.96 0.84,-20.73 h 81.84 c -0.53,18.54 -1.4,34.04 -2.32,42.12 -4.72,41.5 11.63,81.24 -140.09,81.24 -151.717,0 -135.37,-39.74 -140.09,-81.24 -1.53,-13.51 -2.95,-47.8 -2.81,-82.37 0.15,-34.57 1.28,-68.86 2.81,-82.37 4.72,-41.5 -11.627,-81.23 140.09,-81.23 151.72,0 135.37,39.73 140.09,81.23 0.89,7.89 1.65,22.88 2.15,40.87 h -81.66" /><path
         id="path26"
         style="fill:#000000;fill-opacity:1;fill-rule:nonzero;stroke:none"
         d="m 2267.05,1750.9 -48.46,0.03 v 71.42 l 48.45,0.29 c 59.82,0 57.96,9.81 60.32,30.56 0.77,6.76 0.61,1.21 0.54,18.49 -0.08,17.29 0.23,11.35 -0.54,18.1 -2.36,20.75 -0.5,30.57 -60.32,30.57 l -48.47,-0.13 0.08,-240.63 h -80.01 v 312.81 h 128.41 c 151.71,0 135.08,-39.84 140.67,-81.23 0.66,-4.91 0.66,-27.54 0.66,-39.74 0,-9.81 0,-32.44 -0.66,-39.62 -3.83,-41.59 11.04,-80.92 -140.67,-80.92" /><path
         id="path28"
         style="fill:#000000;fill-opacity:1;fill-rule:nonzero;stroke:none"
         d="m 3112.68,271.871 c 59.83,0 57.47,-9.808 59.83,-30.558 0.77,-6.754 1.33,-43.7 1.4,-60.985 0.08,-17.285 -0.63,-54.23 -1.4,-60.984 -2.36,-20.7502 0,-30.5588 -59.83,-30.5588 -59.82,0 -57.46,9.8086 -59.82,30.5588 -0.77,6.754 -1.48,43.699 -1.41,60.984 0.07,17.285 0.64,54.231 1.41,60.985 2.36,20.75 0,30.558 59.82,30.558 l 0.09,72.059 c -151.71,0 -135.36,-39.735 -140.08,-81.231 -1.54,-13.511 -2.96,-47.801 -2.81,-82.371 0.14,-34.57 1.27,-68.859 2.81,-82.3671 4.72,-41.4961 -11.63,-81.2343 140.08,-81.2343 151.72,0 135.37,39.7382 140.09,81.2343 1.54,13.5081 2.67,47.7971 2.81,82.3671 0.15,34.57 -1.27,68.86 -2.81,82.371 -4.72,41.496 11.63,81.231 -140.09,81.231 l -0.09,-72.059" /><path
         id="path30"
         style="fill:#000000;fill-opacity:1;fill-rule:nonzero;stroke:none"
         d="m 1848.85,26.168 91.59,313.434 h 119.04 l 91.8,-313.434 h -79.85 l -18.86,64.7656 h -104.78 l 14.85,50.9254 h 74.84 l -37.1,127.645 -71.68,-243.336 h -79.85" /><path
         id="path32"
         style="fill:#000000;fill-opacity:1;fill-rule:nonzero;stroke:none"
         d="m 1183.43,26.168 91.59,313.434 h 119.04 l 91.8,-313.434 h -79.85 l -18.87,64.7656 h -104.77 l 14.84,50.9254 h 74.84 l -37.09,127.645 -71.68,-243.336 h -79.85" /><path
         id="path34"
         style="fill:#000000;fill-opacity:1;fill-rule:nonzero;stroke:none"
         d="M 447.602,336.258 V 23.1328 h -79.86 V 336.258 h 79.86" /><path
         id="path36"
         style="fill:#000000;fill-opacity:1;fill-rule:nonzero;stroke:none"
         d="M 914.754,336.258 V 23.1328 H 834.906 V 336.258 h 79.848" /><path
         id="path38"
         style="fill:#000000;fill-opacity:1;fill-rule:nonzero;stroke:none"
         d="M 957.199,336.258 H 1186.7 V 256.41 h -74.83 V 23.1328 h -79.84 V 256.41 h -74.831 v 79.848" /><path
         id="path40"
         style="fill:#000000;fill-opacity:1;fill-rule:nonzero;stroke:none"
         d="m 1609.23,102.355 v 233.903 h -79.86 V 22.8203 h 206.23 v 79.5347 h -126.37" /><path
         id="path42"
         style="fill:#000000;fill-opacity:1;fill-rule:nonzero;stroke:none"
         d="M 2921.75,336.258 V 23.1328 h -79.84 V 336.258 h 79.84" /><path
         id="path44"
         style="fill:#000000;fill-opacity:1;fill-rule:nonzero;stroke:none"
         d="m 2607.07,336.07 h 43.38 c 151.72,0 135.37,-39.925 140.09,-81.422 1.53,-13.507 2.96,-37.738 2.81,-72.308 -0.15,-34.57 -1.28,-64.461 -2.81,-77.973 -4.72,-41.4959 11.63,-81.2342 -140.09,-81.2342 H 2511.18 V 336.07 h 95.89 l -1.26,-71.961 -14.46,0.094 V 94.5625 l 59.01,0.6328 c 59.82,0 57.46,9.8087 59.82,30.5587 0.77,6.754 1.48,39.301 1.41,56.586 -0.07,17.289 -0.64,44.172 -1.41,50.926 -2.36,20.75 0,30.558 -59.82,30.558 l -44.55,0.285 1.26,71.961" /><path
         id="path46"
         style="fill:#000000;fill-opacity:1;fill-rule:nonzero;stroke:none"
         d="m 2458.77,180.328 -0.09,155.934 h -81.59 V 180.328 c 0.07,-17.285 -0.64,-54.23 -1.41,-60.984 -2.36,-20.7502 0,-30.5588 -59.82,-30.5588 -59.82,0 -57.47,9.8086 -59.82,30.5588 -0.77,6.754 -1.36,43.699 -1.29,60.984 l 0.12,155.93 h -81.82 v -155.93 c 0.15,-34.57 1.28,-68.859 2.81,-82.3671 4.72,-41.4961 -11.63,-81.2343 140.09,-81.2343 151.72,0 135.37,39.7382 140.09,81.2343 1.53,13.5081 2.58,47.7971 2.73,82.3671" /><path
         id="path48"
         style="fill:#000000;fill-opacity:1;fill-rule:nonzero;stroke:none"
         d="m 701.711,138.824 c -0.242,-9.207 -0.543,-16.769 -0.852,-19.48 -2.355,-20.7502 0,-30.5588 -59.824,-30.5588 -59.824,0 -57.465,9.8086 -59.824,30.5588 -0.77,6.754 -1.477,43.699 -1.406,60.984 0.074,17.285 0.636,54.231 1.406,60.985 2.359,20.75 0,30.558 59.824,30.558 59.824,0 57.469,-9.808 59.824,-30.558 0.325,-2.833 0.61,-0.907 0.836,-10.68 l 81.844,0.004 c -0.527,18.547 -1.406,23.984 -2.324,32.062 -4.719,41.496 11.629,81.231 -140.086,81.231 -151.719,0 -135.371,-39.735 -140.086,-81.231 -1.535,-13.511 -2.957,-47.801 -2.813,-82.371 0.149,-34.57 1.278,-68.859 2.813,-82.3671 4.715,-41.4961 -11.633,-81.2343 140.086,-81.2343 151.715,0 135.367,39.7382 140.086,81.2343 0.898,7.8911 1.656,22.8751 2.16,40.8631 h -81.664" /><path
         id="path50"
         style="fill:#000000;fill-opacity:1;fill-rule:nonzero;stroke:none"
         d="m 640.938,189.125 v -50.301 h 142.437 v 50.301 H 640.938" /><path
         id="path52"
         style="fill:#000000;fill-opacity:1;fill-rule:nonzero;stroke:none"
         d="m 130.387,336.07 h 43.383 c 151.718,0 135.371,-39.925 140.085,-81.422 1.54,-13.507 2.958,-37.738 2.813,-72.308 -0.148,-34.57 -1.273,-64.461 -2.813,-77.973 C 309.141,62.8711 325.488,23.1328 173.77,23.1328 H 34.4961 V 336.07 h 95.8909 l -1.258,-71.961 -14.461,0.094 V 94.5625 l 59.008,0.6328 c 59.824,0 57.465,9.8087 59.824,30.5587 0.77,6.754 1.48,39.301 1.406,56.586 -0.07,17.289 -0.636,44.172 -1.406,50.926 -2.359,20.75 0,30.558 -59.824,30.558 l -44.547,0.285 1.258,71.961" /><path
         id="path54"
         style="fill:#000000;fill-opacity:1;fill-rule:nonzero;stroke:none"
         d="m 714.137,500.246 -499.821,0.582 c -72.32,0 -130.941,58.633 -130.941,130.945 v 760.797 c 0,72.32 58.621,130.94 130.941,130.94 l 312.821,0.36 c 37.562,0 68.027,30.45 68.027,68.02 l 0.914,304.19 c 0,15.74 12.77,28.51 28.512,28.51 h 183.387 c 15.742,0 28.519,-12.77 28.519,-28.51 l 1.883,-1367.424 c 0,-15.742 -12.77,-28.519 -28.512,-28.519 l -95.73,0.109 -2.328,-67.941 125.089,0.035 c 37.567,0 68.028,30.453 68.028,68.027 V 1925.14 c 0,37.56 -30.461,68.01 -68.028,68.01 H 596.301 c -37.563,0 -68.028,-30.45 -68.028,-68.01 l 0.344,-304.96 c 0,-15.74 -12.769,-28.52 -28.523,-28.52 l -285.778,0.52 c -110.25,0 -199.6246,-89.36 -199.6246,-199.61 V 631.773 c 0,-110.238 89.3746,-199.613 199.6246,-199.613 l 497.493,0.145 2.328,67.941" /><path
         id="path56"
         style="fill:#000000;fill-opacity:1;fill-rule:nonzero;stroke:none"
         d="m 528.266,780.281 v 492.199 c 0,41.25 -33.442,74.69 -74.7,74.69 -41.246,0 -74.687,-33.44 -74.687,-74.69 V 741.176 c 0,-41.246 33.441,-74.696 74.687,-74.696 41.258,0 74.7,33.45 74.7,74.696 v 39.105 l 67.894,-2.324 v -36.781 c 0,-78.742 -63.844,-142.582 -142.594,-142.582 -78.738,0 -142.582,63.84 -142.582,142.582 v 531.304 c 0,78.74 63.844,142.59 142.582,142.59 78.75,0 142.594,-63.85 142.594,-142.59 V 777.957 l -67.894,2.324" /><path
         id="path58"
         style="fill:#000000;fill-opacity:1;fill-rule:nonzero;stroke:none"
         d="m 1189.2,500.25 -93.54,-0.004 c -15.76,0 -28.52,12.777 -28.52,28.52 l 1.14,965.624 c 0,15.75 12.77,28.52 28.52,28.52 h 183.39 c 15.75,0 28.52,-12.77 28.52,-28.52 l 1.88,-965.613 c 0,-15.754 -12.77,-28.519 -28.51,-28.519 l -92.88,-0.008 v -67.664 l 119.91,-0.125 c 37.58,0 68.03,30.453 68.03,68.016 V 1523.45 c 0,37.56 -30.45,68.02 -68.03,68.02 H 1068.5 c -37.56,0 -68.01,-30.46 -68.01,-68.02 l -0.14,-1022.712 c 0,-37.574 30.22,-68.027 67.78,-68.027 l 121.07,-0.125 v 67.664" /><path
         id="path60"
         style="fill:#000000;fill-opacity:1;fill-rule:nonzero;stroke:none"
         d="m 2053.17,1332.91 -201.47,0.28 c -62,0 -112.27,-50.27 -112.27,-112.26 0,-62 50.27,-112.27 112.27,-112.27 l 276.03,-0.75 c 72.31,0 130.94,-58.63 130.94,-130.941 l -0.92,-343.637 c 0,-72.324 -58.64,-130.941 -130.95,-130.941 l -547.94,-1 c -15.75,0 -28.52,12.777 -28.52,28.523 V 663 c 0,15.754 12.77,28.52 28.52,28.52 l 373.44,1.218 c 62,0 112.27,50.258 112.27,112.262 0,62 -50.27,112.258 -112.27,112.258 l -270.37,1.066 c -72.31,0 -130.94,58.633 -130.94,130.946 v 343.3 c 0,72.32 58.63,130.94 130.94,130.94 l 507.93,2.38 c 15.74,0 28.51,-12.78 28.51,-28.52 l 0.01,-136.12 c 0,-15.75 -12.77,-28.53 -28.52,-28.53 l -136.69,0.19 -2.33,-66.93 167.05,-0.05 c 37.57,0 68.03,30.23 68.03,67.79 l 0.26,190.68 c 0,37.57 -30.46,68.03 -68.03,68.03 l -536.22,-0.25 c -110.24,0 -199.61,-89.36 -199.61,-199.61 v -343.3 c 0,-110.239 89.37,-199.614 199.61,-199.614 l 270.37,0.461 c 24.93,0 45.13,-20.199 45.13,-45.117 0,-24.93 -20.2,-45.133 -45.13,-45.133 l -402.5,0.082 c -37.57,0 -68.01,-30.453 -68.01,-68.027 V 501.625 c 0,-37.574 30.44,-68.027 68.01,-68.027 l 577,0.121 c 110.24,0 199.61,89.363 199.61,199.613 l 0.93,343.637 c 0,110.231 -89.38,199.611 -199.61,199.611 l -276.03,-0.79 c -24.92,0 -45.12,20.21 -45.12,45.14 0,24.91 20.2,45.11 45.12,45.11 l 199.14,-0.06 2.33,66.93" /><path
         id="path62"
         style="fill:#000000;fill-opacity:1;fill-rule:nonzero;stroke:none"
         d="m 3068.5,1144.13 h 86.53 c 15.75,0 28.52,12.76 28.52,28.52 l -0.36,219.92 c 0,72.32 -58.62,130.94 -130.95,130.94 h -432.88 c -72.32,0 -130.96,-58.62 -130.96,-130.94 V 631.773 c 0,-72.312 58.64,-130.945 130.96,-130.945 h 432.88 c 72.33,0 130.95,58.633 130.95,130.945 l 0.36,209.11 c 0,15.754 -12.77,28.519 -28.52,28.519 h -163.31 c -15.74,0 -28.51,-12.765 -28.51,-28.519 l 0.92,-99.707 c 0,-78.742 -49.59,-142.582 -128.33,-142.582 -78.75,0 -128.33,63.84 -128.33,142.582 v 531.304 c 0,78.74 49.58,142.59 128.33,142.59 78.74,0 128.33,-63.85 128.33,-142.59 l -0.92,-99.83 c 0,-15.76 12.77,-28.52 28.51,-28.52 h 76.78 l -2.33,-68.56 h -102.74 c -37.56,0 -68.02,30.46 -68.02,68.02 l 0.82,128.89 c 0,41.25 -19.18,74.69 -60.43,74.69 -41.26,0 -60.44,-33.44 -60.44,-74.69 V 741.176 c 0,-41.246 19.18,-74.696 60.44,-74.696 41.25,0 60.43,33.45 60.43,74.696 l -0.82,128.762 c 0,37.562 30.46,68.027 68.02,68.027 h 220.52 c 37.58,0 68.03,-30.465 68.03,-68.027 l -0.12,-238.165 c 0,-110.238 -89.37,-199.613 -199.62,-199.613 h -432.88 c -110.25,0 -199.63,89.375 -199.63,199.613 v 760.797 c 0,110.25 89.38,199.61 199.63,199.61 h 432.88 c 110.25,0 199.62,-89.36 199.62,-199.61 l 0.12,-248.98 c 0,-37.56 -30.45,-68.02 -68.03,-68.02 h -117.78 l 2.33,68.56" /></g></g></svg>