<?xml version="1.0" encoding="UTF-8"?>
<svg id="Layer_2" data-name="Layer 2" xmlns="http://www.w3.org/2000/svg" viewBox="0 0 159.36 99.42">
  <defs>
    <style>
      .cls-1 {
        fill: #fff;
        stroke-width: 0px;
      }
    </style>
  </defs>
  <g id="Layer_1-2" data-name="Layer 1">
    <g>
      <path class="cls-1" d="m8.48,95.8c-2.89-2.41-5.03-6.34-6.41-11.79s-2.07-12.76-2.07-21.92.72-15.92,2.17-21.13c1.44-5.21,3.61-8.92,6.51-11.14,2.89-2.22,6.51-3.33,10.85-3.33,2.76,0,5.09.34,7,1.01,1.9.68,3.48,1.74,4.73,3.18,1.25,1.45,2.14,3.28,2.66,5.5h.2V0h21.31v98.7h-21.31c.66-3.96,1.18-8.73,1.58-14.33h-.2c-.79,3.57-1.77,6.44-2.96,8.61-1.18,2.17-2.83,3.79-4.93,4.85-2.11,1.06-4.73,1.59-7.89,1.59-4.6,0-8.35-1.21-11.25-3.62Zm22.49-12.88c1.05-1.74,1.84-4.15,2.37-7.24.52-3.09.79-6.61.79-10.56v-6.51c0-4.05-.26-7.43-.79-10.13-.53-2.7-1.28-4.72-2.27-6.08-.98-1.35-2.2-2.03-3.65-2.03s-2.6.58-3.45,1.74c-.86,1.16-1.51,3.31-1.97,6.44-.46,3.14-.69,7.7-.69,13.68s.2,10.93.59,14.25c.39,3.33,1.05,5.67,1.97,7.02.92,1.35,2.1,2.03,3.55,2.03,1.31,0,2.5-.87,3.55-2.6Z"/>
      <path class="cls-1" d="m60.84,29.94h16.23v11.8h-16.23v-11.8Zm.15,15.48h15.93v53.46h-15.93v-53.46Z"/>
      <path class="cls-1" d="m87.71,97.42c-2.61-1.33-4.4-3.41-5.38-6.22-.98-2.81-1.47-6.67-1.47-11.58h13.87c0,3.25.12,5.63.37,7.14.24,1.52.61,2.53,1.11,3.03.49.5,1.23.76,2.21.76.79,0,1.42-.2,1.92-.6.49-.39.83-1.08,1.03-2.06.2-.97.3-2.36.3-4.17,0-1.66-.15-2.87-.44-3.63-.3-.76-1.03-1.48-2.21-2.16-1.18-.69-3.3-1.61-6.34-2.76-3.05-1.15-5.41-2.33-7.08-3.52s-2.88-2.61-3.61-4.27c-.74-1.66-1.11-3.82-1.11-6.49,0-3.53.64-6.49,1.92-8.87,1.28-2.38,3.25-4.17,5.9-5.36s6.05-1.78,10.18-1.78c4.62,0,8.16.56,10.62,1.68,2.46,1.12,4.23,3.12,5.31,6.01,1.08,2.89,1.62,7.04,1.62,12.45h-13.57c0-3.53-.07-6.04-.22-7.52-.15-1.48-.44-2.47-.88-2.98-.44-.5-1.16-.76-2.14-.76-.89,0-1.55.22-1.99.65s-.74,1.12-.88,2.06-.22,2.27-.22,4,.17,2.99.52,3.79c.34.79,1.08,1.51,2.21,2.17,1.13.65,3.27,1.59,6.42,2.81,3.15,1.23,5.53,2.4,7.16,3.52s2.83,2.51,3.62,4.17c.78,1.66,1.18,3.9,1.18,6.71,0,3.68-.57,6.66-1.69,8.93-1.13,2.27-3.05,3.99-5.75,5.14-2.71,1.16-6.42,1.73-11.14,1.73s-8.68-.67-11.29-2Z"/>
      <path class="cls-1" d="m130.01,96.66c-2.75-1.84-4.77-4.74-6.05-8.71-1.28-3.97-1.92-9.23-1.92-15.8,0-6.93.71-12.37,2.14-16.34,1.42-3.97,3.54-6.78,6.34-8.44,2.8-1.66,6.47-2.49,10.99-2.49s8.06.72,10.62,2.16c2.56,1.44,4.4,3.86,5.53,7.25,1.13,3.39,1.7,8.15,1.7,14.29h-13.87c0-3.82-.1-6.67-.3-8.55-.2-1.88-.54-3.14-1.03-3.79-.49-.65-1.18-.97-2.06-.97-1.08,0-1.89.38-2.43,1.14-.54.76-.96,2.35-1.25,4.76-.3,2.42-.44,6.08-.44,10.98s.12,8.24.37,10.66c.24,2.42.66,4.06,1.25,4.92s1.37,1.3,2.36,1.3c1.08,0,1.84-.31,2.29-.92.44-.61.76-1.8.96-3.57.2-1.77.3-4.67.3-8.71h13.87c0,6.21-.57,10.98-1.7,14.34-1.13,3.35-2.98,5.74-5.53,7.14-2.56,1.41-6.25,2.11-11.06,2.11s-8.31-.92-11.06-2.76Z"/>
    </g>
  </g>
</svg>