<?xml version="1.0" encoding="UTF-8"?>
<svg id="Layer_2" data-name="Layer 2" xmlns="http://www.w3.org/2000/svg" viewBox="0 0 254.01 254.01">
  <defs>
    <style>
      .cls-1 {
        font-family: AppleSDGothicNeo-Light-KSCpc-EUC-H, 'Apple SD Gothic Neo';
        font-weight: 300;
      }

      .cls-1, .cls-2 {
        font-size: 21px;
      }

      .cls-1, .cls-2, .cls-3 {
        fill: #333;
      }

      .cls-4 {
        fill: none;
        stroke: #333;
        stroke-miterlimit: 10;
      }

      .cls-2 {
        font-family: RocGroteskVariable-Regular, 'Roc Grotesk Variable';
        font-variation-settings: 'wdth' 100, 'wght' 400;
      }

      .cls-3 {
        stroke-width: 0px;
      }
    </style>
  </defs>
  <g id="Layer_1-2" data-name="Layer 1">
    <g>
      <g>
        <rect class="cls-3" x="126.78" y="14.56" width=".33" height="225.37" transform="translate(281.44 35.4) rotate(104.21)"/>
        <rect class="cls-3" x="126.67" y="14.5" width=".33" height="225.37" transform="translate(306.43 124.93) rotate(134.21)"/>
        <rect class="cls-3" x="126.6" y="14.39" width=".33" height="225.37" transform="translate(283.33 214.84) rotate(164.21)"/>
        <rect class="cls-3" x="126.6" y="14.26" width=".33" height="225.37" transform="translate(218.5 281.11) rotate(-165.79)"/>
        <rect class="cls-3" x="126.66" y="14.15" width=".33" height="225.37" transform="translate(129.31 306.18) rotate(-135.79)"/>
        <rect class="cls-3" x="126.77" y="14.08" width=".33" height="225.37" transform="translate(39.51 283.42) rotate(-105.79)"/>
      </g>
      <circle class="cls-4" cx="127" cy="127" r="126.5"/>
      <circle class="cls-4" cx="127" cy="127" r="29.7"/>
      <text class="cls-2" transform="translate(116.95 26.93)"><tspan x="0" y="0">C</tspan></text>
      <text class="cls-2" transform="translate(169.64 41.78)"><tspan x="0" y="0">G</tspan></text>
      <text class="cls-2" transform="translate(207 82.16)"><tspan x="0" y="0">D</tspan></text>
      <text class="cls-2" transform="translate(219.95 133.4)"><tspan x="0" y="0">A</tspan></text>
      <text class="cls-2" transform="translate(207.67 184.63)"><tspan x="0" y="0">E</tspan></text>
      <text class="cls-2" transform="translate(170.81 221.2)"><tspan x="0" y="0">B</tspan></text>
      <text class="cls-2" transform="translate(118.14 237.41)"><tspan x="0" y="0">G</tspan></text>
      <text class="cls-1" transform="translate(133.73 230.42) scale(.58)"><tspan x="0" y="0">♭</tspan></text>
      <text class="cls-2" transform="translate(67.12 222.27)"><tspan x="0" y="0">D</tspan></text>
      <text class="cls-1" transform="translate(81.78 215.28) scale(.58)"><tspan x="0" y="0">♭</tspan></text>
      <text class="cls-2" transform="translate(32.19 186.78)"><tspan x="0" y="0">A</tspan></text>
      <text class="cls-1" transform="translate(47.02 179.78) scale(.58)"><tspan x="0" y="0">♭</tspan></text>
      <text class="cls-2" transform="translate(16.22 134.47)"><tspan x="0" y="0">E</tspan></text>
      <text class="cls-1" transform="translate(27.98 127.48) scale(.58)"><tspan x="0" y="0">♭</tspan></text>
      <text class="cls-2" transform="translate(29.66 83.81)"><tspan x="0" y="0">B</tspan></text>
      <text class="cls-1" transform="translate(43.25 76.82) scale(.58)"><tspan x="0" y="0">♭</tspan></text>
      <text class="cls-2" transform="translate(68.8 42.3)"><tspan x="0" y="0">F</tspan></text>
    </g>
  </g>
</svg>